<?xml version="1.0" encoding="UTF-8" standalone="no" ?>
<!DOCTYPE svg PUBLIC "-//W3C//DTD SVG 1.1//EN" "http://www.w3.org/Graphics/SVG/1.1/DTD/svg11.dtd">
<svg xmlns="http://www.w3.org/2000/svg" xmlns:xlink="http://www.w3.org/1999/xlink" version="1.1" width="300" height="300" viewBox="0 0 300 300" xml:space="preserve">
<desc>Created with Fabric.js 5.2.1</desc>
<defs>
</defs>
<g transform="matrix(6.25 0 0 6.25 150 150)"  >
<path style="stroke: none; stroke-width: 0; stroke-dasharray: none; stroke-linecap: butt; stroke-dashoffset: 0; stroke-linejoin: miter; stroke-miterlimit: 4; fill: rgb(255,255,255); fill-rule: nonzero; opacity: 1;"  transform=" translate(-12, -12)" d="M 6.084 4 C 7.462999999999999 5.612 8.66 7 11 7 L 22 7 L 22 20 L 2 20 L 2 4 L 6.084 4 z M 7 2 L 0 2 L 0 22 L 24 22 L 24 5 L 11 5 C 9.371 5 8.695 3.942 7 2 z M 10.715 11.652 L 7.7940000000000005 12.056 L 9.919 14.097999999999999 L 9.401 17 L 12 15.61 L 14.599 17 L 14.081 14.097999999999999 L 16.206 12.056 L 13.285 11.652 L 12 9 L 10.715 11.652000000000001 z" stroke-linecap="round" />
</g>
</svg>